<svg width="45" height="44" viewBox="0 0 45 44" fill="none" xmlns="http://www.w3.org/2000/svg">
<path d="M37 22V40.3333H7.66663V22" stroke="#1364FF" stroke-width="3" stroke-linecap="round" stroke-linejoin="round"/>
<path d="M40.6667 12.8333H4V22H40.6667V12.8333Z" stroke="#1364FF" stroke-width="3" stroke-linecap="round" stroke-linejoin="round"/>
<path d="M22.3333 40.3333V12.8333" stroke="#1364FF" stroke-width="3" stroke-linecap="round" stroke-linejoin="round"/>
<path d="M22.3333 12.8334H14.0833C12.8678 12.8334 11.702 12.3505 10.8424 11.4909C9.98289 10.6314 9.5 9.4656 9.5 8.25002C9.5 7.03444 9.98289 5.86866 10.8424 5.00911C11.702 4.14957 12.8678 3.66669 14.0833 3.66669C20.5 3.66669 22.3333 12.8334 22.3333 12.8334Z" stroke="#1364FF" stroke-width="3" stroke-linecap="round" stroke-linejoin="round"/>
<path d="M22.3333 12.8334H30.5833C31.7989 12.8334 32.9647 12.3505 33.8242 11.4909C34.6838 10.6314 35.1666 9.4656 35.1666 8.25002C35.1666 7.03444 34.6838 5.86866 33.8242 5.00911C32.9647 4.14957 31.7989 3.66669 30.5833 3.66669C24.1666 3.66669 22.3333 12.8334 22.3333 12.8334Z" stroke="#1364FF" stroke-width="3" stroke-linecap="round" stroke-linejoin="round"/>
</svg>
