<svg width="44" height="44" viewBox="0 0 44 44" fill="none" xmlns="http://www.w3.org/2000/svg">
<path d="M29.3333 5.5H1.83334V29.3333H29.3333V5.5Z" stroke="#1364FF" stroke-width="3" stroke-linecap="round" stroke-linejoin="round"/>
<path d="M29.3333 14.6667H36.6667L42.1667 20.1667V29.3334H29.3333V14.6667Z" stroke="#1364FF" stroke-width="3" stroke-linecap="round" stroke-linejoin="round"/>
<path d="M10.0833 38.5C12.6146 38.5 14.6667 36.448 14.6667 33.9166C14.6667 31.3853 12.6146 29.3333 10.0833 29.3333C7.55203 29.3333 5.5 31.3853 5.5 33.9166C5.5 36.448 7.55203 38.5 10.0833 38.5Z" stroke="#1364FF" stroke-width="3" stroke-linecap="round" stroke-linejoin="round"/>
<path d="M33.9167 38.5C36.448 38.5 38.5 36.448 38.5 33.9166C38.5 31.3853 36.448 29.3333 33.9167 29.3333C31.3854 29.3333 29.3333 31.3853 29.3333 33.9166C29.3333 36.448 31.3854 38.5 33.9167 38.5Z" stroke="#1364FF" stroke-width="3" stroke-linecap="round" stroke-linejoin="round"/>
</svg>
