<svg width="44" height="44" viewBox="0 0 44 44" fill="none" xmlns="http://www.w3.org/2000/svg">
<path d="M31.1666 38.5V34.8333C31.1666 32.8884 30.394 31.0232 29.0188 29.6479C27.6435 28.2726 25.7782 27.5 23.8333 27.5H9.16665C7.22173 27.5 5.35646 28.2726 3.9812 29.6479C2.60593 31.0232 1.83331 32.8884 1.83331 34.8333V38.5" stroke="#1364FF" stroke-width="3" stroke-linecap="round" stroke-linejoin="round"/>
<path d="M16.5 20.1667C20.5501 20.1667 23.8334 16.8834 23.8334 12.8333C23.8334 8.78325 20.5501 5.5 16.5 5.5C12.4499 5.5 9.16669 8.78325 9.16669 12.8333C9.16669 16.8834 12.4499 20.1667 16.5 20.1667Z" stroke="#1364FF" stroke-width="3" stroke-linecap="round" stroke-linejoin="round"/>
<path d="M42.1667 38.5V34.8333C42.1655 33.2085 41.6247 31.6301 40.6292 30.3459C39.6337 29.0617 38.2399 28.1446 36.6667 27.7383" stroke="#1364FF" stroke-width="3" stroke-linecap="round" stroke-linejoin="round"/>
<path d="M29.3333 5.73834C30.9107 6.14223 32.3089 7.05963 33.3073 8.34591C34.3058 9.63219 34.8477 11.2142 34.8477 12.8425C34.8477 14.4708 34.3058 16.0528 33.3073 17.3391C32.3089 18.6254 30.9107 19.5428 29.3333 19.9467" stroke="#1364FF" stroke-width="3" stroke-linecap="round" stroke-linejoin="round"/>
</svg>
